HIERARCHY
ROOT Hips
{
	OFFSET 0.0000 0.0000 0.0000
	CHANNELS 6 Xposition Yposition Zposition Zrotation Xrotation Yrotation
	JOINT Ab
	{
		OFFSET -0.0000 8.0846 -0.0000
		CHANNELS 3 Zrotation Xrotation Yrotation
		JOINT Chest
		{
			OFFSET -0.0000 25.0068 -0.0000
			CHANNELS 3 Zrotation Xrotation Yrotation
			JOINT Neck
			{
				OFFSET -0.0000 25.0068 0.0000
				CHANNELS 3 Zrotation Xrotation Yrotation
				JOINT Head
				{
					OFFSET -0.0000 10.7556 0.0000
					CHANNELS 3 Zrotation Xrotation Yrotation
					End Site
					{
						OFFSET -0.0000 16.6222 0.0000
					}
				}
			}
			JOINT LeftCollar
			{
				OFFSET -0.0000 25.0068 0.0000
				CHANNELS 3 Zrotation Xrotation Yrotation
				JOINT LeftShoulder
				{
					OFFSET 19.5556 -0.0000 0.0000
					CHANNELS 3 Zrotation Xrotation Yrotation
					JOINT LeftElbow
					{
						OFFSET 27.1828 0.0000 0.0000
						CHANNELS 3 Zrotation Xrotation Yrotation
						JOINT LeftWrist
						{
							OFFSET 23.3157 0.0000 0.0000
							CHANNELS 3 Zrotation Xrotation Yrotation
							End Site
							{
								OFFSET 0.0000 -14.6667 0.0000
							}
						}
					}
				}
			}
			JOINT RightCollar
			{
				OFFSET -0.0000 25.0068 0.0000
				CHANNELS 3 Zrotation Xrotation Yrotation
				JOINT RightShoulder
				{
					OFFSET -19.5556 0.0000 0.0000
					CHANNELS 3 Zrotation Xrotation Yrotation
					JOINT RightElbow
					{
						OFFSET -27.1828 0.0000 0.0000
						CHANNELS 3 Zrotation Xrotation Yrotation
						JOINT RightWrist
						{
							OFFSET -23.3157 0.0000 0.0000
							CHANNELS 3 Zrotation Xrotation Yrotation
							End Site
							{
								OFFSET -0.0000 -14.6667 0.0000
							}
						}
					}
				}
			}
		}
	}
	JOINT LeftHip
	{
		OFFSET 11.7333 0.0000 0.0000
		CHANNELS 3 Zrotation Xrotation Yrotation
		JOINT LeftKnee
		{
			OFFSET -0.0000 -40.8688 0.0000
			CHANNELS 3 Zrotation Xrotation Yrotation
			JOINT LeftAnkle
			{
				OFFSET -0.0000 -44.4337 0.0000
				CHANNELS 3 Zrotation Xrotation Yrotation
				End Site
				{
					OFFSET -0.0000 -4.8889 16.6222
				}
			}
		}
	}
	JOINT RightHip
	{
		OFFSET -11.7333 0.0000 0.0000
		CHANNELS 3 Zrotation Xrotation Yrotation
		JOINT RightKnee
		{
			OFFSET -0.0000 -40.8688 0.0000
			CHANNELS 3 Zrotation Xrotation Yrotation
			JOINT RightAnkle
			{
				OFFSET -0.0000 -44.4337 0.0000
				CHANNELS 3 Zrotation Xrotation Yrotation
				End Site
				{
					OFFSET -0.0000 -4.8889 16.6222
				}
			}
		}
	}
}
MOTION
Frames: 11
Frame Time: 0.010000
-3.2581 88.6207 188.2572 2.5292 359.8544 174.8825 2.5883 359.3738 357.9104 358.5764 10.0612 358.0227 359.4999 345.6260 1.3213 4.3955 13.2046 0.8706 339.1516 358.4519 8.3327 299.7547 29.0461 356.9042 15.4958 354.6530 322.1447 82.2460 0.8909 339.9437 22.8002 359.1233 355.6283 58.3195 43.5706 7.3397 339.0724 354.2812 30.2951 277.3705 352.4887 19.5331 2.1138 358.2825 357.6600 359.3398 9.8196 357.1066 359.2674 352.6479 22.2155 1.3288 351.6303 359.9206 358.5506 20.0261 10.0853 355.6000 345.1223 336.6518 
-3.2641 88.6212 188.2488 2.5213 359.8364 174.8876 2.5868 359.3821 357.9160 358.5756 10.0412 358.0279 359.4360 345.6235 1.2952 4.4592 13.2192 0.8431 339.1421 358.4688 8.3722 299.7835 29.0295 356.8944 15.4321 354.6677 322.1834 82.2755 0.8491 339.8731 22.8038 359.1446 355.6616 58.2863 43.5937 7.3680 339.2853 354.3224 30.5655 277.0564 353.1679 20.4431 2.1012 358.2670 357.6854 359.3450 9.8222 357.0729 358.1382 352.4327 22.0212 1.3170 351.6213 359.9056 358.5475 20.0234 10.0922 355.6192 345.1120 336.6659 
-3.2674 88.6215 188.2364 2.5143 359.8257 174.8906 2.5766 359.3774 357.9198 358.5900 10.0597 358.0309 359.3914 345.5925 1.2702 4.4776 13.2382 0.8213 339.1441 358.4548 8.3598 299.7632 28.8981 356.9298 15.4001 354.6926 322.1240 82.2730 0.8496 339.7960 22.7967 359.1240 355.6896 58.2675 43.6434 7.3984 339.0528 354.2307 30.4178 277.3357 352.6398 19.7282 2.0921 358.2681 357.6905 359.3476 9.8135 357.0554 359.0946 352.6055 22.1892 1.3082 351.6249 359.9168 358.5483 20.0140 10.1049 355.5867 345.1115 336.6544 
-3.2702 88.6224 188.2237 2.5140 359.8204 174.9010 2.5672 359.3816 357.9253 358.6043 10.0688 358.0346 359.3501 345.5781 1.2438 4.4971 13.2686 0.7946 339.1401 358.4714 8.3642 299.7747 28.8721 356.9384 15.3832 354.7104 322.1373 82.2676 0.8422 339.7681 22.7889 359.1305 355.7061 58.2335 43.6474 7.4467 339.2752 354.2937 30.6877 276.9900 353.2716 20.6660 2.0914 358.2726 357.6718 359.3403 9.8069 357.0558 358.3469 352.4642 22.0739 1.3062 351.6391 359.9239 358.5522 19.9960 10.0778 355.5830 345.1029 336.6547 
-3.2711 88.6232 188.2118 2.5136 359.8079 174.9164 2.5568 359.3845 357.9302 358.6156 10.0686 358.0388 359.2983 345.5562 1.2106 4.5398 13.3134 0.7620 339.1424 358.4627 8.3515 299.7726 28.7999 356.9733 15.3664 354.7089 322.1103 82.2560 0.8280 339.6930 22.7870 359.1249 355.7152 58.1937 43.6869 7.4989 339.2856 354.2651 30.7353 276.8502 353.3336 20.7546 2.0946 358.2640 357.6376 359.3235 9.8050 357.0810 358.8811 352.5412 22.1629 1.3063 351.6507 359.9406 358.5599 19.9718 10.0450 355.5924 345.0877 336.6410 
-3.2733 88.6250 188.1986 2.5092 359.8045 174.9305 2.5434 359.4001 357.9388 358.6206 10.0607 358.0476 359.2725 345.5630 1.1899 4.5662 13.3167 0.7426 339.1435 358.4713 8.3127 299.7655 28.6220 357.0350 15.2589 354.7446 322.0749 82.2638 0.8034 339.5433 22.7910 359.1398 355.7333 58.1469 43.7117 7.5436 339.3081 354.2570 30.8035 276.7265 353.4330 20.7931 2.0949 358.2818 357.6243 359.3040 9.7712 357.0828 358.6361 352.5107 22.1374 1.3004 351.6720 359.9605 358.5666 19.9436 10.0340 355.5416 345.0923 336.6067 
-3.2756 88.6274 188.1863 2.5040 359.7954 174.9468 2.5307 359.4147 357.9465 358.6221 10.0469 358.0553 359.2629 345.5797 1.1682 4.5665 13.3059 0.7229 339.1502 358.4716 8.2665 299.7453 28.4177 357.1102 15.1658 354.7612 321.9832 82.1801 0.8572 339.3520 22.7931 359.1367 355.7354 58.0875 43.7683 7.6193 339.2780 354.2334 30.8338 276.7702 353.3812 20.7870 2.0930 358.2821 357.6082 359.3059 9.7742 357.0249 358.7121 352.5295 22.1747 1.2945 351.6836 359.9718 358.5691 19.9260 10.0294 355.5270 345.0715 336.5850 
-3.2780 88.6302 188.1731 2.4967 359.7823 174.9638 2.5197 359.4204 357.9550 358.6158 10.0472 358.0642 359.2621 345.5728 1.1547 4.5714 13.3139 0.7095 339.1567 358.4682 8.2548 299.7493 28.3174 357.1423 15.0965 354.7644 321.9344 82.2247 0.8713 339.2710 22.8023 359.1349 355.7293 57.9935 43.8393 7.7345 339.3098 354.2385 30.8620 276.5367 353.5033 20.8252 2.0876 358.2754 357.5689 359.2941 9.7721 357.0349 358.8253 352.5423 22.2033 1.2848 351.6850 359.9717 358.5684 19.9239 10.0379 355.6093 345.0229 336.5782 
-3.2831 88.6325 188.1638 2.4857 359.7598 174.9835 2.5162 359.4240 357.9600 358.5965 10.0484 358.0711 359.2488 345.5436 1.1383 4.5881 13.3431 0.6918 339.1632 358.4793 8.2552 299.7667 28.2292 357.1465 14.9899 354.8039 321.9511 82.4195 0.7838 339.2292 22.8185 359.1284 355.7206 57.8729 43.9179 7.8648 339.2870 354.2283 30.8639 276.7816 353.2651 20.7829 2.0859 358.2627 357.5282 359.2511 9.7452 357.0770 358.6155 352.5213 22.1949 1.2645 351.6761 359.9756 358.5813 19.9171 10.0291 355.6618 344.9800 336.5591 
-3.2897 88.6349 188.1532 2.4702 359.7334 175.0138 2.5073 359.4301 357.9612 358.5817 10.0303 358.0740 359.2244 345.5329 1.1241 4.6151 13.3821 0.6759 339.1672 358.4715 8.2528 299.7656 28.1878 357.1838 14.9887 354.7885 321.9148 82.4061 0.7662 339.1690 22.8348 359.1356 355.7154 57.7494 43.9883 7.9828 339.3558 354.2411 30.9284 276.5453 353.4701 20.8557 2.0725 358.2208 357.4847 359.2473 9.7804 357.0260 359.1573 352.6016 22.3112 1.2366 351.6645 359.9790 358.5946 19.9438 9.9451 355.6796 344.9013 336.6128 
-3.3003 88.6365 188.1370 2.4482 359.7170 175.0464 2.5136 359.4540 357.9535 358.5380 9.9796 358.0697 359.1965 345.5649 1.1064 4.6258 13.4006 0.6574 339.1663 358.4717 8.2599 299.7653 28.1387 357.2451 14.9861 354.8004 321.8933 82.3604 0.7524 339.1324 22.8673 359.1297 355.7370 57.6508 44.0657 8.0483 339.3569 354.2121 30.9920 276.4865 353.5230 20.8727 2.0460 358.2078 357.4481 359.2497 9.7869 356.9797 358.4613 352.4415 22.2140 1.1948 351.6669 359.9806 358.6142 19.9486 9.8805 355.8063 344.8175 336.6665 
